<svg viewBox="0 0 1024 1024" xmlns="http://www.w3.org/2000/svg">
  <defs>
    <linearGradient id="paper" x1="0" y1="0" x2="0" y2="1">
      <stop offset="0%" stop-color="#F4E5B0"/>
      <stop offset="55%" stop-color="#E8D49A"/>
      <stop offset="100%" stop-color="#D4BC78"/>
    </linearGradient>
    <radialGradient id="warm" cx="0.5" cy="0.55" r="0.65">
      <stop offset="0%" stop-color="#FFE9A8" stop-opacity="0.45"/>
      <stop offset="100%" stop-color="#D4BC78" stop-opacity="0"/>
    </radialGradient>
    <linearGradient id="gold" x1="0" y1="0" x2="0" y2="1">
      <stop offset="0%"   stop-color="#F4D582"/>
      <stop offset="28%"  stop-color="#E5BA52"/>
      <stop offset="55%"  stop-color="#C99828"/>
      <stop offset="80%"  stop-color="#9A7212"/>
      <stop offset="100%" stop-color="#5C4108"/>
    </linearGradient>
    <linearGradient id="mShine" x1="0" y1="0" x2="0" y2="1">
      <stop offset="0%"   stop-color="#F8DC8E"/>
      <stop offset="35%"  stop-color="#E0B040"/>
      <stop offset="65%"  stop-color="#A87822"/>
      <stop offset="100%" stop-color="#5C4108"/>
    </linearGradient>
    <linearGradient id="grip" x1="0" y1="0" x2="0" y2="1">
      <stop offset="0%" stop-color="#3A2A05"/>
      <stop offset="100%" stop-color="#1F1602"/>
    </linearGradient>
  </defs>
  <rect width="1024" height="1024" fill="url(#paper)"/>
  <rect width="1024" height="1024" fill="url(#warm)"/>
  <g>
    <path d="M 130 152 L 215 138 L 230 168 L 215 178 L 132 174 Z" fill="url(#gold)" stroke="#3A2A05" stroke-width="1.5"/>
    <rect x="226" y="160" width="14" height="10" fill="url(#gold)" stroke="#3A2A05" stroke-width="1"/>
    <rect x="240" y="161" width="580" height="6" fill="url(#gold)"/>
    <rect x="240" y="161" width="580" height="2" fill="#FFEBB8" opacity="0.55"/>
    <rect x="820" y="156" width="74" height="16" rx="3" fill="url(#grip)"/>
    <circle cx="894" cy="164" r="4" fill="#3A2A05"/>
    <line x1="828" y1="160" x2="884" y2="160" stroke="#5C4108" stroke-width="0.6" opacity="0.45"/>
    <line x1="828" y1="168" x2="884" y2="168" stroke="#5C4108" stroke-width="0.6" opacity="0.45"/>
  </g>
  <g>
    <rect x="130" y="856" width="74" height="16" rx="3" fill="url(#grip)"/>
    <circle cx="130" cy="864" r="4" fill="#3A2A05"/>
    <line x1="140" y1="860" x2="196" y2="860" stroke="#5C4108" stroke-width="0.6" opacity="0.45"/>
    <line x1="140" y1="868" x2="196" y2="868" stroke="#5C4108" stroke-width="0.6" opacity="0.45"/>
    <rect x="204" y="861" width="580" height="6" fill="url(#gold)"/>
    <rect x="204" y="861" width="580" height="2" fill="#FFEBB8" opacity="0.55"/>
    <rect x="784" y="860" width="14" height="10" fill="url(#gold)" stroke="#3A2A05" stroke-width="1"/>
    <path d="M 894 852 L 809 838 L 794 868 L 809 878 L 892 874 Z" fill="url(#gold)" stroke="#3A2A05" stroke-width="1.5"/>
  </g>
  <text x="512" y="240" text-anchor="middle" font-family="Georgia, 'Times New Roman', serif" font-weight="400" font-style="italic" font-size="40" fill="#5C4108" style="letter-spacing: 18px;">EST · 2026</text>
  <text x="512" y="945" text-anchor="middle" font-family="Georgia, 'Times New Roman', serif" font-weight="700" font-style="italic" font-size="58" fill="#5C4108" style="letter-spacing: 12px;">THE MATCH</text>
  <text x="512" y="780" text-anchor="middle" font-family="Georgia, 'Times New Roman', serif" font-weight="700" font-size="620" fill="#3A2A05" opacity="0.40" style="letter-spacing: -22px;">M</text>
  <text x="512" y="774" text-anchor="middle" font-family="Georgia, 'Times New Roman', serif" font-weight="700" font-size="620" fill="url(#mShine)" style="letter-spacing: -22px;">M</text>
  <text x="512" y="774" text-anchor="middle" font-family="Georgia, 'Times New Roman', serif" font-weight="700" font-size="620" fill="none" stroke="#3A2A05" stroke-width="2.2" opacity="0.55" style="letter-spacing: -22px;">M</text>
</svg>
